<?xml version="1.0" encoding="UTF-8"?>
<svg width="2em" height="2em" version="1.1" viewBox="0 -75 700 700" xmlns="http://www.w3.org/2000/svg">
 <g>
  <path fill="#FAFAFA" d="m245 455h-87.5c-13.926 0-27.277-5.5312-37.125-15.375-9.8438-9.8477-15.375-23.199-15.375-37.125v-315c0-13.926 5.5312-27.277 15.375-37.125 9.8477-9.8438 23.199-15.375 37.125-15.375h227.5c6.2539 0 12.031 3.3359 15.156 8.75s3.125 12.086 0 17.5-8.9023 8.75-15.156 8.75h-227.5c-4.6406 0-9.0938 1.8438-12.375 5.125s-5.125 7.7344-5.125 12.375v315c0 4.6406 1.8438 9.0938 5.125 12.375s7.7344 5.125 12.375 5.125h87.5c6.2539 0 12.031 3.3359 15.156 8.75s3.125 12.086 0 17.5-8.9023 8.75-15.156 8.75z"/>
  <path fill="#FAFAFA" d="m542.5 525h-192.5c-13.926 0-27.277-5.5312-37.125-15.375-9.8438-9.8477-15.375-23.199-15.375-37.125v-315c0-13.926 5.5312-27.277 15.375-37.125 9.8477-9.8438 23.199-15.375 37.125-15.375h192.5c13.926 0 27.277 5.5312 37.125 15.375 9.8438 9.8477 15.375 23.199 15.375 37.125v315c0 13.926-5.5312 27.277-15.375 37.125-9.8477 9.8438-23.199 15.375-37.125 15.375zm-192.5-385c-4.6406 0-9.0938 1.8438-12.375 5.125s-5.125 7.7344-5.125 12.375v315c0 4.6406 1.8438 9.0938 5.125 12.375s7.7344 5.125 12.375 5.125h192.5c4.6406 0 9.0938-1.8438 12.375-5.125s5.125-7.7344 5.125-12.375v-315c0-4.6406-1.8438-9.0938-5.125-12.375s-7.7344-5.125-12.375-5.125z"/>
  <path fill="#FAFAFA" d="m455 227.5h-70c-6.2539 0-12.031-3.3359-15.156-8.75s-3.125-12.086 0-17.5 8.9023-8.75 15.156-8.75h70c6.2539 0 12.031 3.3359 15.156 8.75s3.125 12.086 0 17.5-8.9023 8.75-15.156 8.75z"/>
  <path fill="#FAFAFA" d="m507.5 315h-122.5c-6.2539 0-12.031-3.3359-15.156-8.75s-3.125-12.086 0-17.5 8.9023-8.75 15.156-8.75h122.5c6.2539 0 12.031 3.3359 15.156 8.75s3.125 12.086 0 17.5-8.9023 8.75-15.156 8.75z"/>
  <path fill="#FAFAFA" d="m507.5 402.5h-122.5c-6.2539 0-12.031-3.3359-15.156-8.75s-3.125-12.086 0-17.5 8.9023-8.75 15.156-8.75h122.5c6.2539 0 12.031 3.3359 15.156 8.75s3.125 12.086 0 17.5-8.9023 8.75-15.156 8.75z"/>
  <path fill="#FAFAFA" d="m262.5 157.5h-70c-6.2539 0-12.031-3.3359-15.156-8.75s-3.125-12.086 0-17.5 8.9023-8.75 15.156-8.75h70c6.2539 0 12.031 3.3359 15.156 8.75s3.125 12.086 0 17.5-8.9023 8.75-15.156 8.75z"/>
  <path fill="#FAFAFA" d="m315 245h-122.5c-6.2539 0-12.031-3.3359-15.156-8.75s-3.125-12.086 0-17.5 8.9023-8.75 15.156-8.75h122.5c6.2539 0 12.031 3.3359 15.156 8.75s3.125 12.086 0 17.5-8.9023 8.75-15.156 8.75z"/>
  <path fill="#FAFAFA" d="m315 332.5h-122.5c-6.2539 0-12.031-3.3359-15.156-8.75s-3.125-12.086 0-17.5 8.9023-8.75 15.156-8.75h122.5c6.2539 0 12.031 3.3359 15.156 8.75s3.125 12.086 0 17.5-8.9023 8.75-15.156 8.75z"/>
 </g>
</svg>
